<mxfile host="Electron" modified="2023-09-11T01:48:30.128Z" agent="Mozilla/5.0 (Windows NT 10.0; Win64; x64) AppleWebKit/537.36 (KHTML, like Gecko) draw.io/21.6.8 Chrome/114.0.5735.289 Electron/25.5.0 Safari/537.36" etag="0nDGrWoNys1BmCEgTsli" version="21.6.8" type="device">
  <diagram id="3228e29e-7158-1315-38df-8450db1d8a1d" name="Page-1">
    <mxGraphModel dx="1500" dy="956" grid="1" gridSize="10" guides="1" tooltips="1" connect="1" arrows="1" fold="1" page="1" pageScale="1" pageWidth="1169" pageHeight="827" background="none" math="0" shadow="0">
      <root>
        <mxCell id="0" />
        <mxCell id="1" parent="0" />
        <mxCell id="21565" value="" style="ellipse;whiteSpace=wrap;html=1;rounded=1;shadow=0;labelBackgroundColor=none;strokeColor=#e85642;strokeWidth=3;fillColor=#e85642;fontFamily=Verdana;fontSize=19;fontColor=#2F5B7C;align=center;opacity=30;rotation=-180;" parent="1" vertex="1">
          <mxGeometry x="210" y="320" width="500" height="310" as="geometry" />
        </mxCell>
        <mxCell id="21567" value="" style="ellipse;whiteSpace=wrap;html=1;rounded=1;shadow=0;labelBackgroundColor=none;strokeColor=#1699d3;strokeWidth=3;fillColor=#1699d3;fontFamily=Helvetica;fontSize=14;fontColor=#2F5B7C;align=center;opacity=30;rotation=90;" parent="1" vertex="1">
          <mxGeometry x="316.68" y="203.63" width="537.13" height="300" as="geometry" />
        </mxCell>
        <mxCell id="21568" value="" style="ellipse;whiteSpace=wrap;html=1;rounded=1;shadow=0;labelBackgroundColor=none;strokeColor=#F08705;strokeWidth=3;fillColor=#F08705;fontFamily=Helvetica;fontSize=14;fontColor=#2F5B7C;align=center;opacity=30;rotation=-90;" parent="1" vertex="1">
          <mxGeometry x="187.5" y="217.5" width="560" height="290" as="geometry" />
        </mxCell>
        <mxCell id="21569" value="" style="ellipse;whiteSpace=wrap;html=1;rounded=1;shadow=0;labelBackgroundColor=none;strokeColor=#736ca8;strokeWidth=3;fillColor=#1C1B2B;fontFamily=Verdana;fontSize=19;fontColor=#2F5B7C;align=center;opacity=30;rotation=0;" parent="1" vertex="1">
          <mxGeometry x="200" y="220" width="530" height="300" as="geometry" />
        </mxCell>
        <mxCell id="21574" value="&lt;font style=&quot;font-size: 19px;&quot;&gt;&lt;b style=&quot;font-size: 19px;&quot;&gt;4&lt;/b&gt;&lt;/font&gt;" style="text;html=1;strokeColor=none;fillColor=none;align=center;verticalAlign=middle;whiteSpace=wrap;rounded=0;shadow=0;labelBackgroundColor=none;fontFamily=Verdana;fontSize=19;fontColor=#FFFFFF;" parent="1" vertex="1">
          <mxGeometry x="590" y="130" width="40" height="20" as="geometry" />
        </mxCell>
        <mxCell id="5ASRgm3VfzvJ3VoPbOI0-21593" value="&lt;font style=&quot;font-size: 19px;&quot;&gt;&lt;b style=&quot;font-size: 19px;&quot;&gt;5&lt;/b&gt;&lt;/font&gt;" style="text;html=1;strokeColor=none;fillColor=none;align=center;verticalAlign=middle;whiteSpace=wrap;rounded=0;shadow=0;labelBackgroundColor=none;fontFamily=Verdana;fontSize=19;fontColor=#FFFFFF;" vertex="1" parent="1">
          <mxGeometry x="430" y="150" width="40" height="20" as="geometry" />
        </mxCell>
        <mxCell id="5ASRgm3VfzvJ3VoPbOI0-21596" value="&lt;font style=&quot;font-size: 19px;&quot;&gt;&lt;b style=&quot;font-size: 19px;&quot;&gt;3&lt;/b&gt;&lt;/font&gt;" style="text;html=1;strokeColor=none;fillColor=none;align=center;verticalAlign=middle;whiteSpace=wrap;rounded=0;shadow=0;labelBackgroundColor=none;fontFamily=Verdana;fontSize=19;fontColor=#FFFFFF;" vertex="1" parent="1">
          <mxGeometry x="250" y="300" width="40" height="20" as="geometry" />
        </mxCell>
        <mxCell id="5ASRgm3VfzvJ3VoPbOI0-21597" value="&lt;font style=&quot;font-size: 19px;&quot;&gt;&lt;b style=&quot;font-size: 19px;&quot;&gt;4&lt;/b&gt;&lt;/font&gt;" style="text;html=1;strokeColor=none;fillColor=none;align=center;verticalAlign=middle;whiteSpace=wrap;rounded=0;shadow=0;labelBackgroundColor=none;fontFamily=Verdana;fontSize=19;fontColor=#FFFFFF;" vertex="1" parent="1">
          <mxGeometry x="283.05" y="530" width="40" height="20" as="geometry" />
        </mxCell>
        <mxCell id="5ASRgm3VfzvJ3VoPbOI0-21599" value="&lt;font color=&quot;#ffffff&quot; style=&quot;font-size: 19px;&quot;&gt;&lt;b style=&quot;font-size: 19px;&quot;&gt;8&lt;/b&gt;&lt;/font&gt;" style="text;html=1;strokeColor=none;fillColor=none;align=center;verticalAlign=middle;whiteSpace=wrap;rounded=0;shadow=0;labelBackgroundColor=none;fontFamily=Verdana;fontSize=19;fontColor=#2F5B7C;" vertex="1" parent="1">
          <mxGeometry x="500" y="170" width="40" height="20" as="geometry" />
        </mxCell>
        <mxCell id="5ASRgm3VfzvJ3VoPbOI0-21600" value="&lt;font color=&quot;#ffffff&quot; style=&quot;font-size: 19px;&quot;&gt;&lt;b style=&quot;font-size: 19px;&quot;&gt;7&lt;/b&gt;&lt;/font&gt;" style="text;html=1;strokeColor=none;fillColor=none;align=center;verticalAlign=middle;whiteSpace=wrap;rounded=0;shadow=0;labelBackgroundColor=none;fontFamily=Verdana;fontSize=19;fontColor=#2F5B7C;" vertex="1" parent="1">
          <mxGeometry x="270" y="404" width="40" height="20" as="geometry" />
        </mxCell>
        <mxCell id="5ASRgm3VfzvJ3VoPbOI0-21601" value="&lt;font color=&quot;#ffffff&quot; style=&quot;font-size: 19px;&quot;&gt;&lt;b style=&quot;font-size: 19px;&quot;&gt;6&lt;/b&gt;&lt;/font&gt;" style="text;html=1;strokeColor=none;fillColor=none;align=center;verticalAlign=middle;whiteSpace=wrap;rounded=0;shadow=0;labelBackgroundColor=none;fontFamily=Verdana;fontSize=19;fontColor=#2F5B7C;" vertex="1" parent="1">
          <mxGeometry x="380" y="250" width="40" height="20" as="geometry" />
        </mxCell>
        <mxCell id="5ASRgm3VfzvJ3VoPbOI0-21602" value="&lt;font color=&quot;#ffffff&quot; style=&quot;font-size: 19px;&quot;&gt;&lt;b style=&quot;font-size: 19px;&quot;&gt;6&lt;/b&gt;&lt;/font&gt;" style="text;html=1;strokeColor=none;fillColor=none;align=center;verticalAlign=middle;whiteSpace=wrap;rounded=0;shadow=0;labelBackgroundColor=none;fontFamily=Verdana;fontSize=19;fontColor=#2F5B7C;" vertex="1" parent="1">
          <mxGeometry x="410" y="560" width="40" height="20" as="geometry" />
        </mxCell>
        <mxCell id="5ASRgm3VfzvJ3VoPbOI0-21603" value="&lt;font color=&quot;#ffffff&quot; style=&quot;font-size: 19px;&quot;&gt;&lt;b style=&quot;font-size: 19px;&quot;&gt;3&lt;/b&gt;&lt;/font&gt;" style="text;html=1;strokeColor=none;fillColor=none;align=center;verticalAlign=middle;whiteSpace=wrap;rounded=0;shadow=0;labelBackgroundColor=none;fontFamily=Verdana;fontSize=19;fontColor=#2F5B7C;" vertex="1" parent="1">
          <mxGeometry x="590" y="550" width="40" height="20" as="geometry" />
        </mxCell>
        <mxCell id="5ASRgm3VfzvJ3VoPbOI0-21604" value="&lt;font color=&quot;#ffffff&quot; style=&quot;font-size: 19px;&quot;&gt;&lt;b style=&quot;font-size: 19px;&quot;&gt;6&lt;/b&gt;&lt;/font&gt;" style="text;html=1;strokeColor=none;fillColor=none;align=center;verticalAlign=middle;whiteSpace=wrap;rounded=0;shadow=0;labelBackgroundColor=none;fontFamily=Verdana;fontSize=19;fontColor=#2F5B7C;" vertex="1" parent="1">
          <mxGeometry x="630" y="290" width="40" height="20" as="geometry" />
        </mxCell>
        <mxCell id="5ASRgm3VfzvJ3VoPbOI0-21605" value="&lt;font color=&quot;#ffffff&quot; style=&quot;font-size: 19px;&quot;&gt;&lt;b style=&quot;font-size: 19px;&quot;&gt;12&lt;/b&gt;&lt;/font&gt;" style="text;html=1;strokeColor=none;fillColor=none;align=center;verticalAlign=middle;whiteSpace=wrap;rounded=0;shadow=0;labelBackgroundColor=none;fontFamily=Verdana;fontSize=19;fontColor=#2F5B7C;" vertex="1" parent="1">
          <mxGeometry x="380" y="384" width="40" height="20" as="geometry" />
        </mxCell>
        <mxCell id="5ASRgm3VfzvJ3VoPbOI0-21606" value="&lt;font color=&quot;#ffffff&quot; style=&quot;font-size: 19px;&quot;&gt;&lt;b style=&quot;font-size: 19px;&quot;&gt;9&lt;/b&gt;&lt;/font&gt;" style="text;html=1;strokeColor=none;fillColor=none;align=center;verticalAlign=middle;whiteSpace=wrap;rounded=0;shadow=0;labelBackgroundColor=none;fontFamily=Verdana;fontSize=19;fontColor=#2F5B7C;" vertex="1" parent="1">
          <mxGeometry x="490" y="270" width="40" height="20" as="geometry" />
        </mxCell>
        <mxCell id="5ASRgm3VfzvJ3VoPbOI0-21607" value="&lt;font color=&quot;#ffffff&quot; style=&quot;font-size: 19px;&quot;&gt;&lt;b style=&quot;font-size: 19px;&quot;&gt;7&lt;/b&gt;&lt;/font&gt;" style="text;html=1;strokeColor=none;fillColor=none;align=center;verticalAlign=middle;whiteSpace=wrap;rounded=0;shadow=0;labelBackgroundColor=none;fontFamily=Verdana;fontSize=19;fontColor=#2F5B7C;" vertex="1" parent="1">
          <mxGeometry x="600" y="424" width="40" height="20" as="geometry" />
        </mxCell>
        <mxCell id="5ASRgm3VfzvJ3VoPbOI0-21608" value="&lt;font color=&quot;#ffffff&quot; style=&quot;font-size: 19px;&quot;&gt;&lt;b style=&quot;font-size: 19px;&quot;&gt;11&lt;/b&gt;&lt;/font&gt;" style="text;html=1;strokeColor=none;fillColor=none;align=center;verticalAlign=middle;whiteSpace=wrap;rounded=0;shadow=0;labelBackgroundColor=none;fontFamily=Verdana;fontSize=19;fontColor=#2F5B7C;" vertex="1" parent="1">
          <mxGeometry x="510" y="530" width="40" height="20" as="geometry" />
        </mxCell>
        <mxCell id="5ASRgm3VfzvJ3VoPbOI0-21609" value="&lt;font color=&quot;#ffffff&quot; style=&quot;font-size: 19px;&quot;&gt;&lt;b style=&quot;font-size: 19px;&quot;&gt;4&lt;/b&gt;&lt;/font&gt;" style="text;html=1;strokeColor=none;fillColor=none;align=center;verticalAlign=middle;whiteSpace=wrap;rounded=0;shadow=0;labelBackgroundColor=none;fontFamily=Verdana;fontSize=19;fontColor=#2F5B7C;" vertex="1" parent="1">
          <mxGeometry x="490" y="384" width="40" height="20" as="geometry" />
        </mxCell>
        <mxCell id="5ASRgm3VfzvJ3VoPbOI0-21612" value="FÃºtbol" style="ellipse;whiteSpace=wrap;html=1;aspect=fixed;rounded=1;shadow=0;glass=0;labelBackgroundColor=none;strokeColor=none;strokeWidth=2;fillColor=#E85642;gradientColor=none;fontFamily=Helvetica;fontSize=25;fontColor=#2F5B7C;align=left;opacity=50;labelPosition=right;verticalLabelPosition=middle;verticalAlign=middle;" vertex="1" parent="1">
          <mxGeometry x="50" y="560" width="41" height="41" as="geometry" />
        </mxCell>
        <mxCell id="5ASRgm3VfzvJ3VoPbOI0-21613" value="EquitaciÃ³n" style="ellipse;whiteSpace=wrap;html=1;aspect=fixed;rounded=1;shadow=0;glass=0;labelBackgroundColor=none;strokeColor=none;strokeWidth=2;fillColor=#1C1B2B;gradientColor=none;fontFamily=Helvetica;fontSize=25;fontColor=#2F5B7C;align=left;opacity=50;labelPosition=right;verticalLabelPosition=middle;verticalAlign=middle;" vertex="1" parent="1">
          <mxGeometry x="40" y="479" width="41" height="41" as="geometry" />
        </mxCell>
        <mxCell id="5ASRgm3VfzvJ3VoPbOI0-21614" value="Basketball" style="ellipse;whiteSpace=wrap;html=1;aspect=fixed;rounded=1;shadow=0;glass=0;labelBackgroundColor=none;strokeColor=none;strokeWidth=2;fillColor=#F08705;gradientColor=none;fontFamily=Helvetica;fontSize=25;fontColor=#2F5B7C;align=left;opacity=50;labelPosition=right;verticalLabelPosition=middle;verticalAlign=middle;" vertex="1" parent="1">
          <mxGeometry x="40" y="424" width="41" height="41" as="geometry" />
        </mxCell>
        <mxCell id="5ASRgm3VfzvJ3VoPbOI0-21616" value="NataciÃ³n" style="ellipse;whiteSpace=wrap;html=1;aspect=fixed;rounded=1;shadow=0;glass=0;labelBackgroundColor=none;strokeColor=none;strokeWidth=2;fillColor=#1699D3;gradientColor=none;fontFamily=Helvetica;fontSize=25;fontColor=#2F5B7C;align=left;opacity=50;labelPosition=right;verticalLabelPosition=middle;verticalAlign=middle;" vertex="1" parent="1">
          <mxGeometry x="40" y="350" width="41" height="41" as="geometry" />
        </mxCell>
      </root>
    </mxGraphModel>
  </diagram>
</mxfile>
